<svg xmlns="http://www.w3.org/2000/svg" xmlns:xlink="http://www.w3.org/1999/xlink" width="760" height="1000" viewBox="0 0 760 1000">
<defs><linearGradient id="ov" x1="0" y1="0" x2="1" y2="1"><stop offset="0" stop-color="#080706" stop-opacity=".88"/><stop offset=".55" stop-color="#0a0907" stop-opacity=".78"/><stop offset="1" stop-color="#0a0907" stop-opacity=".9"/></linearGradient></defs>
<rect width="100%" height="100%" fill="#080706"/>
<image href="/assets/hero-compass-poster.jpg" x="0" y="0" width="760" height="1000" preserveAspectRatio="xMidYMid slice" opacity=".75"/>
<rect width="100%" height="100%" fill="url(#ov)"/>
<g transform="translate(45,45)">
<image href="/assets/seal-mark.webp" x="0" y="0" width="48" height="48" preserveAspectRatio="xMidYMid meet"/>
<text x="62" y="33" fill="#d4b661" font-family="Georgia,serif" font-size="25">Gap Map</text>
</g>
<g transform="translate(38,125)">
<g transform="translate(0,0)"><rect x="0" y="0" width="62" height="145" rx="8" fill="#000" fill-opacity=".45" stroke="#3da977" stroke-opacity=".45"/><rect x="2" y="37.75" width="58" height="107.25" rx="6" fill="#3da977" fill-opacity=".85"/><text x="31" y="82" text-anchor="middle" fill="#f2ede2" font-family="Arial" font-size="14">75%</text><circle cx="31" cy="180" r="27" fill="#000" stroke="#3da977" stroke-width="3"/><image href="/assets/pillar-digital-v2.webp" x="4" y="153" width="54" height="54" preserveAspectRatio="xMidYMid slice"/><text x="31" y="220" text-anchor="middle" fill="#c9c3b6" font-family="Georgia,serif" font-size="13">Digital Life</text></g><g transform="translate(330,0)"><rect x="0" y="0" width="62" height="145" rx="8" fill="#000" fill-opacity=".45" stroke="#d9a441" stroke-opacity=".45"/><rect x="2" y="56.34" width="58" height="88.66" rx="6" fill="#d9a441" fill-opacity=".85"/><text x="31" y="82" text-anchor="middle" fill="#f2ede2" font-family="Arial" font-size="14">62%</text><circle cx="31" cy="180" r="27" fill="#000" stroke="#d9a441" stroke-width="3"/><image href="/assets/pillar-emergency-v2.webp" x="4" y="153" width="54" height="54" preserveAspectRatio="xMidYMid slice"/><text x="31" y="220" text-anchor="middle" fill="#c9c3b6" font-family="Georgia,serif" font-size="13">Emergency & Successor Orientation</text></g><g transform="translate(0,230)"><rect x="0" y="0" width="62" height="145" rx="8" fill="#000" fill-opacity=".45" stroke="#d9a441" stroke-opacity=".45"/><rect x="2" y="44.900000000000006" width="58" height="100.1" rx="6" fill="#d9a441" fill-opacity=".85"/><text x="31" y="82" text-anchor="middle" fill="#f2ede2" font-family="Arial" font-size="14">70%</text><circle cx="31" cy="180" r="27" fill="#000" stroke="#d9a441" stroke-width="3"/><image href="/assets/pillar-financial-v2.webp" x="4" y="153" width="54" height="54" preserveAspectRatio="xMidYMid slice"/><text x="31" y="220" text-anchor="middle" fill="#c9c3b6" font-family="Georgia,serif" font-size="13">Financial & Assets</text></g><g transform="translate(330,230)"><rect x="0" y="0" width="62" height="145" rx="8" fill="#000" fill-opacity=".45" stroke="#6b675e" stroke-opacity=".45"/><rect x="2" y="145" width="58" height="0" rx="6" fill="#6b675e" fill-opacity=".85"/><text x="31" y="82" text-anchor="middle" fill="#f2ede2" font-family="Arial" font-size="14">—</text><circle cx="31" cy="180" r="27" fill="#000" stroke="#6b675e" stroke-width="3"/><image href="/assets/pillar-household-v2.webp" x="4" y="153" width="54" height="54" preserveAspectRatio="xMidYMid slice"/><text x="31" y="220" text-anchor="middle" fill="#c9c3b6" font-family="Georgia,serif" font-size="13">Household Operations</text></g><g transform="translate(0,460)"><rect x="0" y="0" width="62" height="145" rx="8" fill="#000" fill-opacity=".45" stroke="#b3413a" stroke-opacity=".45"/><rect x="2" y="92.09" width="58" height="52.91" rx="6" fill="#b3413a" fill-opacity=".85"/><text x="31" y="82" text-anchor="middle" fill="#f2ede2" font-family="Arial" font-size="14">37%</text><circle cx="31" cy="180" r="27" fill="#000" stroke="#b3413a" stroke-width="3"/><image href="/assets/pillar-vital-v2.webp" x="4" y="153" width="54" height="54" preserveAspectRatio="xMidYMid slice"/><text x="31" y="220" text-anchor="middle" fill="#c9c3b6" font-family="Georgia,serif" font-size="13">Vital Records</text></g><g transform="translate(330,460)"><rect x="0" y="0" width="62" height="145" rx="8" fill="#000" fill-opacity=".45" stroke="#d9a441" stroke-opacity=".45"/><rect x="2" y="73.5" width="58" height="71.5" rx="6" fill="#d9a441" fill-opacity=".85"/><text x="31" y="82" text-anchor="middle" fill="#f2ede2" font-family="Arial" font-size="14">50%</text><circle cx="31" cy="180" r="27" fill="#000" stroke="#d9a441" stroke-width="3"/><image href="/assets/pillar-legacy-v2.webp" x="4" y="153" width="54" height="54" preserveAspectRatio="xMidYMid slice"/><text x="31" y="220" text-anchor="middle" fill="#c9c3b6" font-family="Georgia,serif" font-size="13">Legacy & Wishes</text></g><g transform="translate(0,690)"><rect x="0" y="0" width="62" height="145" rx="8" fill="#000" fill-opacity=".45" stroke="#b3413a" stroke-opacity=".45"/><rect x="2" y="109.25" width="58" height="35.75" rx="6" fill="#b3413a" fill-opacity=".85"/><text x="31" y="82" text-anchor="middle" fill="#f2ede2" font-family="Arial" font-size="14">25%</text><circle cx="31" cy="180" r="27" fill="#000" stroke="#b3413a" stroke-width="3"/><image href="/assets/pillar-business-v2.webp" x="4" y="153" width="54" height="54" preserveAspectRatio="xMidYMid slice"/><text x="31" y="220" text-anchor="middle" fill="#c9c3b6" font-family="Georgia,serif" font-size="13">Business Continuity</text></g></g></svg>